HIERARCHY
ROOT Hips
{
	OFFSET 0.000000 0.000000 0.000000
	CHANNELS 6 Xposition Yposition Zposition Zrotation Yrotation Xrotation 
	JOINT LHipJoint
	{
		OFFSET 0.000000 0.000000 0.000000
		CHANNELS 3 Zrotation Yrotation Xrotation
		JOINT LeftUpLeg
		{
			OFFSET 1.363060 -1.794630 0.839290
			CHANNELS 3 Zrotation Yrotation Xrotation
			JOINT LeftLeg
			{
				OFFSET 2.448110 -6.726130 0.000000
				CHANNELS 3 Zrotation Yrotation Xrotation
				JOINT LeftFoot
				{
					OFFSET 2.562200 -7.039590 0.000000
					CHANNELS 3 Zrotation Yrotation Xrotation
					JOINT LeftToeBase
					{
						OFFSET 0.157640 -0.433110 2.322550
						CHANNELS 3 Zrotation Yrotation Xrotation
						End Site
						{
							OFFSET 0.000000 0.000000 0.000000
						}
					}
				}
			}
		}
	}
	JOINT RHipJoint
	{
		OFFSET 0.000000 0.000000 0.000000
		CHANNELS 3 Zrotation Yrotation Xrotation
		JOINT RightUpLeg
		{
			OFFSET -1.305520 -1.794630 0.839290
			CHANNELS 3 Zrotation Yrotation Xrotation
			JOINT RightLeg
			{
				OFFSET -2.542530 -6.985550 0.000000
				CHANNELS 3 Zrotation Yrotation Xrotation
				JOINT RightFoot
				{
					OFFSET -2.568260 -7.056230 0.000000
					CHANNELS 3 Zrotation Yrotation Xrotation
					JOINT RightToeBase
					{
						OFFSET -0.164730 -0.452590 2.363150
						CHANNELS 3 Zrotation Yrotation Xrotation
						End Site
						{
							OFFSET 0.000000 0.000000 0.000000
						}
					}
				}
			}
		}
	}
	JOINT LowerBack
	{
		OFFSET 0.000000 0.000000 0.000000
		CHANNELS 3 Zrotation Yrotation Xrotation
		JOINT Spine
		{
			OFFSET 0.028270 2.035590 -0.193380
			CHANNELS 3 Zrotation Yrotation Xrotation
			JOINT Spine1
			{
				OFFSET 0.056720 2.048850 -0.042750
				CHANNELS 3 Zrotation Yrotation Xrotation
				JOINT Neck
				{
					OFFSET 0.000000 0.000000 0.000000
					CHANNELS 3 Zrotation Yrotation Xrotation
					JOINT Neck1
					{
						OFFSET -0.054170 1.746240 0.172020
						CHANNELS 3 Zrotation Yrotation Xrotation
						JOINT Head
						{
							OFFSET 0.104070 1.761360 -0.123970
							CHANNELS 3 Zrotation Yrotation Xrotation
							End Site
							{
								OFFSET 0.000000 0.000000 0.000000
							}
						}
					}
				}
				JOINT LeftShoulder
				{
					OFFSET 0.000000 0.000000 0.000000
					CHANNELS 3 Zrotation Yrotation Xrotation
					JOINT LeftArm
					{
						OFFSET 3.362410 1.200890 -0.311210
						CHANNELS 3 Zrotation Yrotation Xrotation
						JOINT LeftForeArm
						{
							OFFSET 4.983000 -0.000000 -0.000000
							CHANNELS 3 Zrotation Yrotation Xrotation
							JOINT LeftHand
							{
								OFFSET 3.483560 -0.000000 -0.000000
								CHANNELS 3 Zrotation Yrotation Xrotation
								JOINT LeftFingerBase
								{
									OFFSET 0.000000 0.000000 0.000000
									CHANNELS 3 Zrotation Yrotation Xrotation
									JOINT LeftHandIndex1
									{
										OFFSET 0.715260 -0.000000 -0.000000
										CHANNELS 3 Zrotation Yrotation Xrotation
										End Site
										{
											OFFSET 0.000000 0.000000 0.000000
										}
									}
								}
								JOINT LThumb
								{
									OFFSET 0.000000 0.000000 0.000000
									CHANNELS 3 Zrotation Yrotation Xrotation
									End Site
									{
										OFFSET 0.000000 0.000000 0.000000
									}
								}
							}
						}
					}
				}
				JOINT RightShoulder
				{
					OFFSET 0.000000 0.000000 0.000000
					CHANNELS 3 Zrotation Yrotation Xrotation
					JOINT RightArm
					{
						OFFSET -3.136600 1.374050 -0.404650
						CHANNELS 3 Zrotation Yrotation Xrotation
						JOINT RightForeArm
						{
							OFFSET -5.241900 -0.000000 -0.000000
							CHANNELS 3 Zrotation Yrotation Xrotation
							JOINT RightHand
							{
								OFFSET -3.444170 -0.000000 -0.000000
								CHANNELS 3 Zrotation Yrotation Xrotation
								JOINT RightFingerBase
								{
									OFFSET 0.000000 0.000000 0.000000
									CHANNELS 3 Zrotation Yrotation Xrotation
									JOINT RightHandIndex1
									{
										OFFSET -0.622530 -0.000000 -0.000000
										CHANNELS 3 Zrotation Yrotation Xrotation
										End Site
										{
											OFFSET 0.000000 0.000000 0.000000
										}
									}
								}
								JOINT RThumb
								{
									OFFSET 0.000000 0.000000 0.000000
									CHANNELS 3 Zrotation Yrotation Xrotation
									End Site
									{
										OFFSET 0.000000 0.000000 0.000000
									}
								}
							}
						}
					}
				}
			}
		}
	}
}
MOTION
Frames: 8
Frame Time: 0.008333
5.666678 17.033882 0.501474 -8.323773 84.673822 16.651912 -10.312611 0.106802 -0.962781 -8.096468 -1.976712 -29.296163 -1.444744 1.245122 36.665749 1.373124 6.185136 -12.374409 -0.615700 -0.000000 -49.715900 9.325993 0.803852 -2.506255 10.734885 -4.380502 -49.019326 1.223940 -4.282971 52.234547 -1.990869 -7.150357 -12.226613 0.270500 -0.000000 -30.259600 -0.154501 -1.144195 5.716038 -0.882664 -1.011017 -1.851659 -6.649870 -1.108883 0.095337 9.513435 7.545121 2.150276 -3.203441 -0.313174 2.310246 0.000000 0.000000 0.000000 -4.390568 -2.474902 2.334809 -60.479529 -28.006439 19.884151 -3.102564 -43.421092 0.007516 0.226216 -2.726345 -0.007896 -0.125795 0.221377 0.000000 0.000000 0.000000 0.000000 0.000000 0.000000 0.000000 13.434794 7.282585 1.804534 69.084717 11.372113 -22.567258 2.505738 5.448694 -0.006105 -5.314028 1.360630 -0.068735 0.103893 -0.093995 -0.000000 0.000000 0.000000 0.000000 0.000000 0.000000 0.000000 
5.883257 17.086095 0.536612 -9.616217 84.951490 15.526660 -10.408164 0.186470 -1.044017 -7.790865 -1.419063 -28.345523 -1.454018 1.211373 35.641200 1.218711 5.539486 -11.053017 -0.416800 -0.000000 -51.512700 9.113241 0.846657 -2.139471 10.740969 -3.652925 -49.636174 1.482258 -4.016497 48.969929 -2.091531 -7.342613 -12.156228 0.218300 0.000000 -29.851299 0.296055 -1.247966 5.464169 -0.775929 -1.131413 -1.895062 -6.632378 -1.228325 0.116741 9.624724 7.091546 1.941847 -3.182763 -0.310669 2.266778 0.000000 0.000000 0.000000 -4.042382 -2.480419 2.190365 -60.633140 -28.849004 20.574728 -2.892890 -45.802343 0.003608 1.299295 -2.807552 -0.036850 -0.133720 0.240139 0.000000 0.000000 0.000000 0.000000 0.000000 0.000000 0.000000 13.408343 6.830593 1.975155 68.173322 9.892530 -22.181642 2.642955 4.799776 -0.006402 -4.821207 0.337400 -0.018158 0.106569 -0.084634 -0.000000 0.000000 0.000000 0.000000 0.000000 0.000000 0.000000 
6.099880 17.133663 0.574677 -10.588488 85.262941 14.709097 -10.498065 0.263914 -1.143509 -7.510185 -0.877024 -27.387723 -1.462524 1.185049 34.658363 1.074398 4.909246 -9.728881 -0.248200 -0.000000 -53.466300 8.917129 0.885810 -1.760476 10.611036 -2.937072 -50.092845 1.741669 -3.710885 45.465163 -2.151885 -7.372056 -11.907047 0.130300 0.000000 -29.724700 0.704875 -1.355290 5.229720 -0.677317 -1.255107 -1.934346 -6.608381 -1.350055 0.134768 9.731091 6.585957 1.739905 -3.162299 -0.308237 2.223983 0.000000 0.000000 0.000000 -3.652389 -2.514116 2.036814 -60.779288 -29.669762 21.109636 -2.689893 -48.096707 -0.000703 2.332277 -2.927632 -0.067603 -0.142223 0.259741 0.000000 0.000000 0.000000 0.000000 0.000000 0.000000 0.000000 13.375158 6.317088 2.126663 67.288093 8.463703 -21.574590 2.785642 4.292497 -0.006414 -4.208629 -0.438767 0.013624 0.108191 -0.076741 -0.000000 0.000000 0.000000 0.000000 0.000000 0.000000 0.000000 
6.316787 17.176158 0.615586 -11.146831 85.614693 14.286515 -10.581306 0.340033 -1.258119 -7.256211 -0.370580 -26.404401 -1.470100 1.164920 33.704261 0.942245 4.305548 -8.408958 -0.109699 -0.000000 -55.548100 8.743249 0.924767 -1.372436 10.337102 -2.251408 -50.382504 1.998055 -3.361904 41.724902 -2.157127 -7.209878 -11.433844 0.004600 0.000000 -29.975200 1.070572 -1.469145 5.013040 -0.586904 -1.384829 -1.969546 -6.577303 -1.477009 0.149992 9.831687 6.042458 1.548844 -3.141783 -0.305895 2.183063 0.000000 0.000000 0.000000 -3.222897 -2.578823 1.877897 -60.916178 -30.460810 21.495877 -2.498362 -50.299565 -0.005052 3.247015 -3.088539 -0.098555 -0.150255 0.279926 -0.000000 0.000000 0.000000 0.000000 0.000000 0.000000 0.000000 13.333649 5.754681 2.258854 66.425782 7.082360 -20.811217 2.930349 3.912035 -0.006123 -3.514290 -0.966702 0.028413 0.109059 -0.070248 -0.000000 0.000000 0.000000 0.000000 0.000000 0.000000 0.000000 
6.534357 17.213179 0.659158 -11.172526 86.011792 14.375813 -10.657098 0.415257 -1.383267 -7.028891 0.081564 -25.385059 -1.476420 1.149509 32.766910 0.823433 3.736124 -7.098383 0.000000 0.000000 -57.719400 8.597019 0.967415 -0.977821 9.914316 -1.610956 -50.510772 2.245042 -2.967894 37.769855 -2.098019 -6.852001 -10.704243 -0.153900 0.000001 -30.659800 1.393844 -1.591136 4.811475 -0.504807 -1.522149 -2.000976 -6.540475 -1.610914 0.164422 9.927384 5.464165 1.368436 -3.122057 -0.303685 2.144030 0.000000 0.000000 0.000000 -2.759412 -2.670487 1.716965 -61.040795 -31.224529 21.748118 -2.321384 -52.408659 -0.009105 3.987725 -3.278589 -0.128109 -0.156909 0.300368 -0.000000 0.000000 0.000000 0.000000 0.000000 0.000000 0.000000 13.288675 5.147222 2.372002 65.582463 5.725518 -19.829036 3.075349 3.711753 -0.005652 -2.790712 -1.314071 0.031604 0.109650 -0.064610 -0.000000 0.000000 0.000000 0.000000 0.000000 0.000000 0.000000 
6.752920 17.244347 0.705162 -10.468202 86.455432 15.175339 -10.724862 0.490664 -1.512324 -6.828922 0.463872 -24.328257 -1.481473 1.137506 31.839713 0.718202 3.204011 -5.803751 0.083000 -0.000001 -59.910500 8.483256 1.018091 -0.578047 9.339665 -1.026636 -50.496995 2.473778 -2.531142 33.644094 -1.973104 -6.317540 -9.711925 -0.331700 0.000000 -31.753000 1.679076 -1.723639 4.617636 -0.429405 -1.669821 -2.030571 -6.494569 -1.754927 0.177350 10.008345 4.869439 1.202879 -3.100770 -0.301530 2.108347 0.000000 0.000000 0.000000 -2.273077 -2.795491 1.555683 -61.146152 -31.940274 21.868733 -2.157775 -54.437558 -0.012619 4.530872 -3.487011 -0.154667 -0.161426 0.320832 -0.000000 0.000000 0.000000 0.000000 0.000000 0.000000 0.000000 13.220378 4.511379 2.467635 64.760769 4.416764 -18.851757 3.214730 3.586886 -0.004946 -2.072173 -1.443333 0.026301 0.110088 -0.060183 -0.000000 0.000000 0.000000 0.000000 0.000000 0.000000 0.000000 
6.972867 17.269305 0.753239 -8.723375 86.942742 16.999390 -10.784257 0.566859 -1.638322 -6.654510 0.766135 -23.238907 -1.485464 1.127738 30.919519 0.626088 2.708934 -4.532906 0.141600 -0.000001 -62.061400 8.404887 1.080456 -0.175949 8.616538 -0.505999 -50.369365 2.674445 -2.059118 29.413049 -1.789768 -5.644673 -8.483028 -0.508900 -0.000000 -33.163600 1.931691 -1.866447 4.424239 -0.359861 -1.828222 -2.059942 -6.439657 -1.909696 0.189289 10.070320 4.265005 1.051839 -3.077816 -0.299432 2.076181 0.000000 0.000000 0.000000 -1.775452 -2.950912 1.395842 -61.225941 -32.605329 21.869370 -2.006631 -56.394098 -0.015444 4.873443 -3.696067 -0.176129 -0.163430 0.341043 -0.000000 0.000000 0.000000 0.000000 0.000000 0.000000 0.000000 13.124263 3.855150 2.547323 63.959919 3.142225 -17.883058 3.346398 3.548514 -0.004111 -1.402052 -1.412642 0.017901 0.110698 -0.056608 -0.000000 0.000000 0.000000 0.000000 0.000000 0.000000 0.000000 
7.194517 17.287889 0.802995 -5.351082 87.463430 20.439725 -10.834901 0.644993 -1.754417 -6.503237 0.984506 -22.126242 -1.489139 1.119740 30.007322 0.546093 2.248102 -3.292538 0.178300 -0.000000 -64.116300 8.362532 1.157664 0.223735 7.754583 -0.054453 -50.163736 2.837629 -1.564475 25.162425 -1.563330 -4.882341 -7.079607 -0.664000 0.000000 -34.741800 2.158714 -2.018050 4.225091 -0.295432 -1.996742 -2.090493 -6.375728 -2.074844 0.200675 10.108422 3.656234 0.914260 -3.053102 -0.297383 2.047488 0.000000 0.000000 0.000000 -1.280085 -3.132632 1.238483 -61.274398 -33.218102 21.761297 -1.866216 -58.287058 -0.017530 5.033110 -3.888891 -0.191396 -0.162857 0.360761 -0.000000 0.000000 0.000000 0.000000 0.000000 0.000000 0.000000 12.995618 3.185301 2.613054 63.178672 1.893372 -16.928702 3.468906 3.600368 -0.003244 -0.812032 -1.277888 0.009903 0.111704 -0.053569 -0.000000 0.000000 0.000000 0.000000 0.000000 0.000000 0.000000 
